<?xml version="1.0" standalone="no"?>
<!DOCTYPE svg PUBLIC "-//W3C//DTD SVG 20010904//EN"
 "http://www.w3.org/TR/2001/REC-SVG-20010904/DTD/svg10.dtd">
<svg version="1.0" xmlns="http://www.w3.org/2000/svg"
 width="283.000000pt" height="29.000000pt" viewBox="0 0 283.000000 29.000000"
 preserveAspectRatio="xMidYMid meet">
<metadata>
Created by potrace 1.10, written by Peter Selinger 2001-2011
</metadata>
<g transform="translate(0.000000,29.000000) scale(0.100000,-0.100000)"
fill="#000000" stroke="none">
<path d="M50 155 c0 -78 2 -85 20 -85 18 0 20 7 21 68 l2 67 15 -67 c14 -58
20 -68 38 -68 18 0 24 10 37 68 l15 67 1 -67 c1 -61 3 -68 21 -68 18 0 20 7
20 85 l0 85 -35 0 c-32 0 -35 -3 -41 -37 -12 -66 -20 -69 -34 -14 -12 49 -13
51 -46 51 l-34 0 0 -85z"/>
<path d="M280 155 l0 -85 70 0 c63 0 70 2 70 20 0 17 -7 20 -45 20 -33 0 -45
4 -45 15 0 11 11 15 40 15 33 0 40 3 40 20 0 17 -7 20 -40 20 -22 0 -40 5 -40
10 0 6 20 10 45 10 38 0 45 3 45 20 0 18 -7 20 -70 20 l-70 0 0 -85z"/>
<path d="M479 203 c-6 -21 -20 -59 -30 -85 l-19 -48 30 0 c20 0 30 5 30 15 0
10 11 15 35 15 24 0 35 -5 35 -15 0 -10 10 -15 30 -15 l30 0 -21 53 c-12 28
-26 67 -32 85 -9 27 -15 32 -43 32 -29 0 -34 -4 -45 -37z m60 -33 c9 -28 8
-30 -14 -30 -22 0 -23 2 -14 30 6 17 12 30 14 30 2 0 8 -13 14 -30z"/>
<path d="M640 155 l0 -85 65 0 c58 0 65 2 65 20 0 17 -7 20 -40 20 l-40 0 0
65 c0 63 -1 65 -25 65 -25 0 -25 -1 -25 -85z"/>
<path d="M810 220 c-11 -11 -20 -24 -20 -28 0 -14 33 -39 64 -49 35 -11 45
-30 20 -40 -10 -4 -22 0 -29 10 -15 21 -55 22 -55 3 0 -8 10 -22 22 -30 47
-33 128 -9 128 38 0 29 -17 44 -59 52 -17 4 -34 11 -37 15 -9 15 25 22 41 9 7
-6 24 -10 37 -8 l23 3 -22 23 c-29 28 -85 30 -113 2z"/>
<path d="M1050 155 c0 -84 0 -85 25 -85 22 0 25 4 25 35 0 33 2 35 35 35 28 0
35 4 35 20 0 16 -7 20 -35 20 -19 0 -35 5 -35 10 0 6 18 10 40 10 33 0 40 3
40 20 0 18 -7 20 -65 20 l-65 0 0 -85z"/>
<path d="M1244 231 c-43 -19 -54 -90 -20 -136 20 -27 107 -28 133 -2 23 23 24
100 2 122 -19 20 -85 28 -115 16z m74 -43 c7 -7 12 -21 12 -33 0 -46 -53 -62
-71 -21 -21 45 26 87 59 54z"/>
<path d="M1410 155 c0 -84 0 -85 25 -85 22 0 25 4 25 35 0 19 5 35 10 35 6 0
20 -16 31 -35 16 -27 27 -35 50 -35 29 0 29 0 14 29 -8 17 -20 33 -26 36 -7 5
-3 14 10 26 47 44 15 79 -75 79 l-64 0 0 -85z m105 35 c-3 -5 -17 -10 -31 -10
-13 0 -24 5 -24 10 0 6 14 10 31 10 17 0 28 -4 24 -10z"/>
<path d="M1680 155 c0 -78 2 -85 20 -85 18 0 20 7 21 68 l2 67 15 -67 c14 -58
20 -68 38 -68 18 0 24 10 37 68 l15 67 1 -67 c1 -64 2 -68 24 -68 21 0 22 3
19 85 l-3 85 -34 0 c-31 0 -35 -3 -41 -37 -12 -66 -20 -69 -34 -14 -12 49 -13
51 -46 51 l-34 0 0 -85z"/>
<path d="M1925 191 c25 -34 35 -59 35 -85 0 -32 3 -36 25 -36 22 0 25 4 25 36
0 26 10 50 36 85 l36 49 -31 0 c-24 0 -34 -7 -47 -31 l-16 -31 -19 31 c-14 24
-26 31 -49 31 l-30 0 35 -49z"/>
<path d="M2118 229 c-21 -12 -24 -52 -5 -66 6 -6 25 -15 41 -20 35 -11 45 -30
20 -40 -10 -4 -22 0 -29 10 -15 21 -55 22 -55 3 0 -8 10 -22 22 -30 47 -33
128 -9 128 38 0 29 -17 44 -59 52 -17 4 -34 11 -37 15 -9 15 25 22 41 9 7 -6
24 -10 37 -8 l23 3 -22 23 c-25 24 -75 29 -105 11z"/>
<path d="M2270 155 l0 -85 70 0 c63 0 70 2 70 20 0 17 -7 20 -45 20 -33 0 -45
4 -45 15 0 11 11 15 40 15 33 0 40 3 40 20 0 17 -7 20 -40 20 -22 0 -40 5 -40
10 0 6 20 10 45 10 38 0 45 3 45 20 0 18 -7 20 -70 20 l-70 0 0 -85z"/>
<path d="M2440 155 l0 -85 65 0 c58 0 65 2 65 20 0 17 -7 20 -40 20 l-40 0 0
65 c0 63 -1 65 -25 65 -25 0 -25 -1 -25 -85z"/>
<path d="M2600 155 c0 -84 0 -85 25 -85 22 0 25 4 25 35 0 33 2 35 35 35 28 0
35 4 35 20 0 16 -7 20 -35 20 -19 0 -35 5 -35 10 0 6 18 10 40 10 33 0 40 3
40 20 0 18 -7 20 -65 20 l-65 0 0 -85z"/>
</g>
</svg>
