 <svg version="1.0" xmlns="http://www.w3.org/2000/svg" width="700.000000pt" height="155.000000pt" viewBox="0 0 700.000000 155.000000" preserveAspectRatio="xMidYMid meet">
<metadata>
Created by potrace 1.12, written by Peter Selinger 2001-2015
</metadata>
<g transform="translate(0.000000,155.000000) scale(0.100000,-0.100000)" fill="#000000" stroke="none">
<path d="M625 1110 c-108 -17 -193 -67 -247 -146 -28 -40 -58 -150 -58 -209 0
-61 31 -169 61 -215 31 -47 102 -110 124 -110 7 0 32 -9 56 -20 84 -38 244
-23 364 32 112 52 123 70 124 209 1 130 15 121 -179 117 l-135 -3 0 -75 0 -75
52 -5 c29 -3 58 -11 65 -18 24 -24 -8 -34 -114 -36 -103 -1 -103 -1 -145 33
-50 40 -73 92 -73 165 0 68 28 133 74 169 31 24 44 27 105 27 70 0 72 -1 112
-42 l40 -42 42 13 c23 7 61 17 85 23 63 17 59 38 -22 134 -15 19 -33 34 -40
34 -6 0 -27 8 -46 19 -41 21 -170 33 -245 21z"></path>
<path d="M3085 1113 c-22 -3 -45 -9 -51 -14 -12 -10 -9 -68 6 -124 5 -16 11
-46 14 -66 6 -35 9 -37 49 -41 52 -6 77 6 77 36 0 13 7 43 15 66 8 23 15 64
15 91 0 44 -2 49 -22 49 -13 0 -32 2 -43 4 -11 2 -38 1 -60 -1z"></path>
<path d="M4382 1111 l-33 -6 -1 -348 c0 -221 3 -352 10 -359 6 -6 95 -8 243
-6 227 4 236 5 289 30 30 14 63 35 73 45 29 32 58 127 50 165 -9 48 -49 106
-89 130 -37 22 -45 53 -16 62 32 11 67 76 67 125 0 56 -30 100 -91 136 -39 23
-50 24 -255 28 -118 3 -229 2 -247 -2z m373 -177 c16 -17 12 -52 -9 -67 -6 -4
-51 -6 -101 -5 l-90 3 -3 28 c-6 53 0 57 97 57 69 0 93 -4 106 -16z m32 -266
c30 -28 29 -59 -2 -88 -23 -22 -34 -24 -118 -24 -51 0 -98 4 -105 8 -13 8 -17
108 -5 119 3 4 51 7 107 7 89 0 102 -2 123 -22z"></path>
<path d="M5171 1111 c-12 -8 -14 -69 -14 -353 0 -190 3 -350 7 -356 10 -17
141 -16 153 1 5 7 8 161 8 355 -1 288 -3 345 -16 353 -18 11 -120 11 -138 0z"></path>
<path d="M1207 927 c-11 -29 -7 -510 4 -524 15 -17 145 -18 155 -1 5 7 9 69
10 138 1 106 5 132 24 175 12 28 25 52 27 55 2 2 27 7 55 10 47 5 53 8 74 45
27 47 31 100 8 109 -9 3 -36 6 -61 6 -37 0 -49 -5 -71 -30 -15 -16 -32 -30
-38 -30 -7 0 -17 14 -23 30 -10 30 -11 30 -84 30 -53 0 -76 -4 -80 -13z"></path>
<path d="M1810 919 c-19 -10 -40 -19 -45 -19 -23 0 -76 -68 -100 -128 -30 -75
-32 -141 -5 -201 11 -24 20 -49 20 -55 0 -21 63 -72 122 -100 121 -56 296 -23
366 68 17 24 32 48 32 54 0 20 -159 16 -182 -4 -23 -22 -106 -29 -137 -12 -33
18 -52 50 -41 68 7 12 45 16 197 20 l188 5 3 57 c2 46 -2 67 -24 110 -31 61
-81 118 -103 118 -9 0 -29 9 -46 20 -43 28 -194 28 -245 -1z m199 -120 c11
-12 25 -34 32 -51 10 -25 9 -32 -4 -46 -20 -19 -143 -27 -183 -11 -24 8 -26
13 -20 47 10 54 46 82 106 82 37 0 54 -5 69 -21z"></path>
<path d="M2430 910 c-30 -20 -54 -48 -72 -83 -50 -96 -32 -258 35 -322 80 -76
153 -89 241 -43 67 35 76 29 76 -46 0 -52 -4 -65 -25 -89 -21 -22 -34 -27 -74
-27 -32 0 -56 6 -72 19 -25 19 -103 42 -154 44 -29 2 -30 1 -28 -38 4 -50 27
-83 84 -115 37 -21 60 -25 151 -28 93 -4 112 -2 141 15 18 11 44 23 57 26 14
4 37 23 52 43 35 47 40 98 36 414 l-3 255 -67 3 c-58 2 -70 0 -85 -18 -22 -25
-53 -26 -86 0 -20 16 -40 20 -94 20 -59 0 -74 -4 -113 -30z m249 -121 c29 -28
31 -36 31 -98 0 -60 -3 -71 -28 -99 -24 -27 -36 -32 -75 -32 -68 0 -97 38 -97
125 0 89 33 135 96 135 34 0 48 -6 73 -31z"></path>
<path d="M3420 909 c-44 -23 -58 -36 -73 -71 -16 -37 -16 -48 -5 -91 18 -72
61 -97 218 -128 30 -6 71 -14 90 -17 30 -6 35 -11 38 -40 3 -27 -1 -34 -23
-42 -44 -17 -120 -12 -146 8 -34 27 -72 34 -140 26 -41 -4 -59 -11 -59 -21 0
-19 50 -93 64 -93 7 0 30 -10 51 -21 31 -17 63 -23 141 -26 97 -5 104 -4 163
25 78 38 115 87 116 152 0 93 -82 149 -233 159 -98 7 -122 19 -122 62 0 22 20
29 84 29 41 0 57 -5 71 -20 16 -18 29 -20 89 -18 62 3 71 5 74 23 4 28 -40 84
-89 112 -36 20 -53 23 -148 22 -96 -1 -111 -4 -161 -30z"></path>
<path d="M5615 912 c-27 -15 -62 -39 -77 -53 -69 -65 -92 -207 -49 -304 30
-67 62 -99 137 -135 84 -40 178 -42 248 -5 26 14 52 25 58 25 18 0 67 60 89
109 28 63 30 172 4 232 -21 51 -82 119 -105 119 -8 0 -28 9 -45 20 -25 16 -46
20 -120 19 -77 -1 -97 -5 -140 -27z m202 -107 c23 -16 53 -93 53 -134 0 -34
-21 -102 -40 -130 -11 -16 -28 -24 -61 -28 -38 -4 -50 -1 -74 20 -44 36 -60
99 -44 176 15 79 45 111 103 111 23 0 51 -7 63 -15z"></path>
<path d="M6260 911 c-59 -37 -75 -56 -94 -114 -22 -65 -20 -141 5 -212 25 -72
29 -77 88 -117 60 -40 127 -43 193 -8 63 33 78 24 78 -46 0 -41 -6 -64 -21
-85 -18 -26 -26 -29 -71 -29 -33 0 -58 6 -69 16 -19 17 -116 45 -164 47 -29 2
-30 1 -28 -38 4 -50 27 -83 84 -115 38 -21 60 -25 152 -28 103 -4 112 -3 165
24 63 31 98 63 114 103 12 30 16 601 4 619 -4 7 -34 12 -72 12 -52 0 -67 -4
-81 -20 -10 -11 -27 -20 -39 -20 -12 0 -33 9 -47 20 -41 32 -139 28 -197 -9z
m244 -123 c23 -28 26 -41 26 -103 0 -65 -2 -74 -29 -99 -24 -23 -35 -27 -77
-24 -45 3 -50 6 -71 43 -25 44 -29 94 -12 146 19 55 37 69 89 69 41 0 51 -4
74 -32z"></path>
</g>
</svg>